<?xml version="1.0" encoding="UTF-8" standalone="no"?>
<svg width="200px" height="200px" viewBox="0 0 200 200" version="1.1" xmlns="http://www.w3.org/2000/svg" xmlns:xlink="http://www.w3.org/1999/xlink" xmlns:sketch="http://www.bohemiancoding.com/sketch/ns">
    <!-- Generator: Sketch 3.0.3 (7892) - http://www.bohemiancoding.com/sketch -->
    <title>icon</title>
    <desc>Created with Sketch.</desc>
    <defs></defs>
    <g id="Page-1" stroke="none" stroke-width="1" fill="none" fill-rule="evenodd" sketch:type="MSPage">
        <g id="icon" sketch:type="MSArtboardGroup" fill="#000000">
            <path d="M148.11293,95.546556 L104.452407,51.8862894 C101.939579,49.3712369 97.8618108,49.3712369 95.3446296,51.8862894 L86.279295,60.9539732 L97.7791018,72.4550874 C100.451906,71.5518015 103.517578,72.1579825 105.647333,74.2877782 C107.790148,76.4317217 108.389788,79.5224828 107.464753,82.2051329 L118.548839,93.2894297 C121.231438,92.3643779 124.324317,92.9618525 126.467131,95.1079726 C129.459889,98.0996988 129.459889,102.950235 126.467131,105.944138 C123.472197,108.939129 118.622842,108.939129 115.626819,105.944138 C113.375178,103.691365 112.819069,100.382944 113.959581,97.6099655 L103.620965,87.27224 L103.620965,114.475292 C104.350109,114.836606 105.038987,115.318721 105.647333,115.924902 C108.640091,118.917717 108.640091,123.767164 105.647333,126.764332 C102.654576,129.756058 97.8019556,129.756058 94.8113747,126.764332 C91.8186171,123.767164 91.8186171,118.917717 94.8113747,115.924902 C95.5503137,115.185949 96.4078748,114.626565 97.3209379,114.252191 L97.3209379,86.7966546 C96.4078748,86.423369 95.5524902,85.8683379 94.8113747,85.1250316 C92.5444969,82.859199 91.9992709,79.5311892 93.1615491,76.7473276 L81.8238953,65.4072812 L51.8854372,95.3441329 C49.3715209,97.8613619 49.3715209,101.939208 51.8854372,104.45426 L95.5481371,148.114527 C98.0620535,150.628491 102.138733,150.628491 104.657003,148.114527 L148.11293,104.656683 C150.629023,102.141631 150.629023,98.0605202 148.11293,95.546556" id="git-2" sketch:type="MSShapeGroup"></path>
        </g>
    </g>
</svg>