<?xml version="1.0" encoding="UTF-8" standalone="no"?>
<svg width="200px" height="200px" viewBox="0 0 200 200" version="1.1" xmlns="http://www.w3.org/2000/svg" xmlns:xlink="http://www.w3.org/1999/xlink" xmlns:sketch="http://www.bohemiancoding.com/sketch/ns">
    <!-- Generator: Sketch 3.0.3 (7892) - http://www.bohemiancoding.com/sketch -->
    <title>icon</title>
    <desc>Created with Sketch.</desc>
    <defs></defs>
    <g id="Page-1" stroke="none" stroke-width="1" fill="none" fill-rule="evenodd" sketch:type="MSPage">
        <g id="icon" sketch:type="MSArtboardGroup" fill="#000000">
            <path d="M50,135.7 C50,135.52 55.2071006,127.42 61.6568047,117.7 L73.2544379,100 L61.6568047,82.3 C55.2071006,72.58 50,64.48 50,64.3 C50,64.12 53.8461538,64 58.4615385,64 L66.9822485,64 L78.5798817,81.7 C85.0295858,91.42 90.2366864,99.64 90.2366864,100 C90.2366864,100.36 85.0295858,108.58 78.5798817,118.3 L66.9822485,136 L58.4615385,136 C53.8461538,136 50,135.88 50,135.7 Z M73.6686391,135.7 C73.6686391,135.52 78.8757396,127.42 85.3254438,117.7 L96.9230769,100 L85.3254438,82.3 C78.8757396,72.58 73.6686391,64.48 73.6686391,64.3 C73.6686391,64.12 77.5147929,64 82.1301775,64 L90.6508876,64 L98.1656805,75.46 L105.739645,86.98 L113.195266,75.52 L120.710059,64 L129.171598,64 C136.153846,64 137.573964,64.12 137.159763,64.84 C136.923077,65.26 126.331361,81.46 113.668639,100.84 L90.7100592,136 L82.1893491,136 C77.5147929,136 73.6686391,135.88 73.6686391,135.7 Z M111.301775,114.28 C111.538462,113.86 113.313609,111.16 115.207101,108.28 L118.698225,103 L134.319527,103 L150,103 L150,109 L150,115 L130.414201,115 C114.970414,115 110.946746,114.82 111.301775,114.28 Z M123.136095,96.28 C123.372781,95.86 125.147929,93.16 127.04142,90.28 L130.532544,85 L140.236686,85 L150,85 L150,91 L150,97 L136.331361,97 C125.621302,97 122.781065,96.82 123.136095,96.28 Z" id="haskell-2" sketch:type="MSShapeGroup" transform="translate(100.000000, 100.000000) scale(1, -1) translate(-100.000000, -100.000000) "></path>
        </g>
    </g>
</svg>