<?xml version="1.0" encoding="UTF-8" standalone="no"?>
<svg width="200px" height="200px" viewBox="0 0 200 200" version="1.1" xmlns="http://www.w3.org/2000/svg" xmlns:xlink="http://www.w3.org/1999/xlink" xmlns:sketch="http://www.bohemiancoding.com/sketch/ns">
    <!-- Generator: Sketch 3.0.3 (7892) - http://www.bohemiancoding.com/sketch -->
    <title>icon</title>
    <desc>Created with Sketch.</desc>
    <defs></defs>
    <g id="Page-1" stroke="none" stroke-width="1" fill="none" fill-rule="evenodd" sketch:type="MSPage">
        <g id="icon" sketch:type="MSArtboardGroup" fill="#000000">
            <path d="M149.166882,119.710564 C149.166882,121.591814 148.177065,123.321328 146.549968,124.254314 L103.200007,149.170286 C102.466423,149.600148 101.644878,149.824106 100.812208,149.857786 L100.364061,149.857786 C99.5369534,149.824106 98.7140179,149.600148 97.9713943,149.170286 L54.6211069,124.254314 C53.0049826,123.321328 52,121.591814 52,119.710564 L52.0950663,52.6194184 C52.0950663,51.6862587 52.5799035,50.8182031 53.4015457,50.3611198 C54.2068925,49.8796267 55.2010104,49.8796267 56.0036315,50.3611198 L81.7651975,65.0936545 C83.3949018,66.0607031 84.3876394,67.7656337 84.3876394,69.630599 L84.3876394,100.975495 C84.3876394,102.844592 85.3790559,104.573759 87.0020502,105.502925 L97.9713943,111.812648 C98.788767,112.284523 99.6822796,112.515078 100.594914,112.515078 C101.488774,112.515078 102.405233,112.284523 103.200007,111.812648 L114.16657,105.502925 C115.789495,104.573759 116.784875,102.844592 116.784875,100.975495 L116.784875,69.630599 C116.784875,67.7656337 117.789642,66.0498698 119.408742,65.0936545 L145.164849,50.3611198 C145.972835,49.8796267 146.980384,49.8796267 147.781763,50.3611198 C148.580362,50.8182031 149.082746,51.6862587 149.082746,52.6194184 L149.166882,119.710564" id="node-2" sketch:type="MSShapeGroup" transform="translate(100.500000, 100.000000) scale(1, -1) translate(-100.500000, -100.000000) "></path>
        </g>
    </g>
</svg>